Coordinates
version=1
nRows=11
nColumns=32
inDegrees=yes

Units are S.I. units (second, meters, Newtons, ...)
If the header above contains a line with 'inDegrees', this indicates whether rotational values are in degrees (yes) or radians (no).

endheader
time	pelvis_tilt	pelvis_list	pelvis_rotation	pelvis_tx	pelvis_ty	pelvis_tz	hip_flexion_r	hip_adduction_r	hip_rotation_r	knee_angle_r	knee_adduction_r	med_cond_adduction_r	lat_cond_adduction_r	patella_r_constrained_knee_angle	hip_flexion_l	hip_adduction_l	hip_rotation_l	knee_angle_l	knee_adduction_l	med_cond_adduction_l	lat_cond_adduction_l	patella_l_constrained_knee_angle	lumbar_extension	lumbar_bending	lumbar_rotation	ankle_angle_r	subtalar_angle_r	mtp_angle_r	ankle_angle_l	subtalar_angle_l	mtp_angle_l
      2.34000000	    -14.12202970	      1.97728770	      3.63407146	      0.10616575	      0.67071988	     -0.38100867	     44.59066442	     -1.97143991	      3.36276088	    -14.03829554	     -5.71463986	      0.00000000	      0.00000000	     -0.24501448	      4.24247761	      1.24809506	     -1.45149896	    -23.99546286	     -5.14835767	     -0.00000000	     -0.00000000	     -0.41879983	      0.79810901	     -6.06616560	    -13.54568646	      1.64936387	      4.10291060	      0.00000000	     14.16356736	     12.33975271	      0.00000000
      2.34500000	    -13.97562351	      1.83342540	      3.45328413	      0.11371966	      0.66973321	     -0.37959947	     44.78161439	     -1.54718375	      3.60914839	    -15.43204096	     -5.46497555	      0.00000000	      0.00000000	     -0.26933993	      3.99827561	      0.72767351	     -1.75523094	    -25.05074772	     -4.93422246	     -0.00000000	     -0.00000000	     -0.43721803	      0.80961408	     -5.70450837	    -13.13608170	      1.12948595	      4.38042793	      0.00000000	     13.83173229	     12.77570853	      0.00000000
      2.35000000	    -13.85850619	      1.65182418	      3.29855441	      0.12124041	      0.66876596	     -0.37820751	     44.95059828	     -1.10010170	      3.85410048	    -16.75920204	     -5.20187252	      0.00000000	      0.00000000	     -0.29250326	      3.93132325	      0.16987843	     -1.95386795	    -26.37283631	     -4.69239625	      0.00000000	      0.00000000	     -0.46029283	      0.89231831	     -5.35218347	    -13.06454070	      0.46101337	      4.75165817	      0.00000000	     13.22575858	     13.32136389	     -0.00000000
      2.35500000	    -13.68883305	      1.47769693	      3.13117600	      0.12876174	      0.66793924	     -0.37680006	     45.02797748	     -0.61987977	      4.18055779	    -18.10203288	     -5.00203295	     -0.00000000	     -0.00000000	     -0.31594008	      3.87450227	     -0.37919859	     -2.08252101	    -27.79076902	     -4.41148519	     -0.00000000	     -0.00000000	     -0.48504042	      0.86067271	     -4.94672829	    -12.88934636	     -0.09819973	      4.72511822	      0.00000000	     12.28462557	     12.98461176	      0.00000000
      2.36000000	    -13.52012368	      1.24772249	      2.92044756	      0.13625340	      0.66716925	     -0.37536681	     45.07947738	     -0.03185456	      4.54468811	    -19.40301764	     -4.84844330	     -0.00000000	     -0.00000000	     -0.33864654	      3.92730917	     -0.99702419	     -2.12689719	    -29.40486579	     -4.05601083	     -0.00000000	      0.00000000	     -0.51321172	      0.82870485	     -4.49554437	    -12.74783183	     -0.77565424	      4.68988465	      0.00000000	     11.23242014	     12.81778430	     -0.00000000
      2.36500000	    -13.34424999	      0.96381473	      2.74344586	      0.14369521	      0.66649523	     -0.37394228	     45.07941579	      0.59075686	      4.87655672	    -20.63264670	     -4.71639502	      0.00000000	      0.00000000	     -0.36010762	      4.10044878	     -1.69670919	     -2.08292730	    -31.22006846	     -3.62375576	      0.00000000	      0.00000000	     -0.54489299	      0.77325922	     -3.94875672	    -12.50578765	     -1.57321891	      4.58081513	     -0.00000000	     10.11038607	     12.80222160	      0.00000000
      2.37000000	    -13.25165105	      0.70407440	      2.53185628	      0.15107306	      0.66577718	     -0.37245639	     45.14670515	      1.25072461	      5.33318315	    -21.83953964	     -4.64707236	     -0.00000000	     -0.00000000	     -0.38117187	      4.50575674	     -2.39212322	     -1.98068996	    -33.26765582	     -3.08121685	      0.00000000	      0.00000000	     -0.58063013	      0.87992060	     -3.41416867	    -12.34526790	     -2.01583425	      4.57796777	     -0.00000000	      8.92795869	     12.66115994	     -0.00000000
      2.37500000	    -13.03736802	      0.29599481	      2.33538523	      0.15839652	      0.66534834	     -0.37102334	     45.01365538	      2.03197548	      5.70258594	    -22.95564773	     -4.58214933	      0.00000000	      0.00000000	     -0.40065163	      4.84718347	     -3.23784802	     -1.76446116	    -35.34989020	     -2.52992478	     -0.00000000	     -0.00000000	     -0.61697197	      0.74502217	     -2.77430772	    -12.17372221	     -2.74669795	      4.31899693	      0.00000000	      7.30541669	     12.45660890	     -0.00000000
      2.38000000	    -12.98945147	     -0.00461086	      2.14923082	      0.16562002	      0.66483561	     -0.36964014	     45.01155388	      2.71295990	      6.28394254	    -23.96149042	     -4.53602062	      0.00000000	      0.00000000	     -0.41820690	      5.48002179	     -3.94148118	     -1.32959443	    -37.57195469	     -1.82970676	      0.00000000	      0.00000000	     -0.65575432	      0.85932145	     -2.21795369	    -11.92223431	     -3.11329893	      3.98609699	      0.00000000	      5.74773865	     11.47289296	     -0.00000000
      2.38500000	    -12.84378490	     -0.39846437	      1.99043600	      0.17280787	      0.66452551	     -0.36830951	     44.87354056	      3.45694120	      6.67172656	    -24.93667618	     -4.54245901	      0.00000000	      0.00000000	     -0.43522710	      6.11784378	     -4.76163014	     -0.90757459	    -39.91741810	     -1.12783334	      0.00000000	      0.00000000	     -0.69669037	      0.89851921	     -1.57205310	    -11.71083898	     -3.51306862	      3.58497772	     -0.00000000	      4.05143631	     10.77856319	     -0.00000000
      2.39000000	    -12.92449451	     -0.67160118	      1.84329789	      0.17998277	      0.66410828	     -0.36701861	     45.03159179	      4.06540424	      7.05792772	    -26.04616613	     -4.54286638	     -0.00000000	     -0.00000000	     -0.45459136	      7.02612076	     -5.39451713	     -0.22853641	    -42.18601698	     -0.29677224	      0.00000000	      0.00000000	     -0.73628489	      1.41583372	     -1.19663595	    -11.28416880	     -3.74621243	      3.17511256	     -0.00000000	      2.43983347	      9.74670610	     -0.00000000
